<?xml version="1.0" encoding="utf-8"?>
<!-- Generator: Adobe Illustrator 24.2.3, SVG Export Plug-In . SVG Version: 6.00 Build 0)  -->
<svg version="1.1" id="Layer_1" xmlns="http://www.w3.org/2000/svg" xmlns:xlink="http://www.w3.org/1999/xlink" x="0px" y="0px"
	 viewBox="0 0 300 300" style="enable-background:new 0 0 300 300;" xml:space="preserve">
<style type="text/css">
	.st0{fill:#060A12;}
	.st1{fill:url(#SVGID_1_);}
	.st2{fill:url(#SVGID_2_);}
	.st3{fill:url(#SVGID_3_);}
	.st4{fill:url(#SVGID_4_);}
	.st5{fill:url(#SVGID_5_);}
	.st6{fill:url(#SVGID_6_);}
	.st7{fill:none;}
	.st8{fill:url(#SVGID_7_);}
	.st9{fill:#FFFFFF;}
</style>
<rect x="-0.09" y="-0.09" class="st0" width="300.19" height="300.19"/>
<linearGradient id="SVGID_1_" gradientUnits="userSpaceOnUse" x1="108.2323" y1="171.3011" x2="149.1496" y2="97.4971">
	<stop  offset="0" style="stop-color:#309BE1"/>
	<stop  offset="0.7104" style="stop-color:#26BBF4"/>
	<stop  offset="1" style="stop-color:#26ACF3"/>
</linearGradient>
<path class="st1" d="M108.59,156.54l-7.06,13.76h15.1l7.06-13.76H108.59z"/>
<linearGradient id="SVGID_2_" gradientUnits="userSpaceOnUse" x1="106.8194" y1="170.5179" x2="147.7367" y2="96.7138">
	<stop  offset="0" style="stop-color:#309BE1"/>
	<stop  offset="0.7104" style="stop-color:#26BBF4"/>
	<stop  offset="1" style="stop-color:#26ACF3"/>
</linearGradient>
<path class="st2" d="M150,86.73v18.53l-0.33,0.64l-13.17,25.67l-0.81,1.57l-6.38,12.42h-15.1l27.58-53.74
	C143.52,88.47,146.75,86.77,150,86.73z"/>
<linearGradient id="SVGID_3_" gradientUnits="userSpaceOnUse" x1="157.4404" y1="100.3954" x2="170.6334" y2="133.0909">
	<stop  offset="0" style="stop-color:#26ACF3"/>
	<stop  offset="1" style="stop-color:#5585D3"/>
</linearGradient>
<path class="st3" d="M181.41,136.5c-7.29-3.72-14.16-6.03-18.87-7.36l-11.93-23.25l-0.47-0.91l-0.14,0.27V86.73
	c3.34-0.05,6.71,1.65,8.48,5.09L181.41,136.5z"/>
<linearGradient id="SVGID_4_" gradientUnits="userSpaceOnUse" x1="214.2888" y1="193.8153" x2="152.8492" y2="145.1224">
	<stop  offset="0" style="stop-color:#6A2FD6"/>
	<stop  offset="0.1477" style="stop-color:#9165E1"/>
	<stop  offset="0.2956" style="stop-color:#B294EA"/>
	<stop  offset="0.4435" style="stop-color:#CEBAF1"/>
	<stop  offset="0.5891" style="stop-color:#E3D8F7"/>
	<stop  offset="0.7319" style="stop-color:#F3EEFC"/>
	<stop  offset="0.8704" style="stop-color:#FCFBFE"/>
	<stop  offset="1" style="stop-color:#FFFFFF"/>
</linearGradient>
<path class="st4" d="M227.3,198.68c-0.54,0.33-1.1,0.65-1.68,0.95c-3.35,1.72-6.93,2.57-10.46,2.64c-0.15,0.01-0.3,0.01-0.45,0.01
	c-9.2,0-16.51-5.48-21.22-13.06c-3.4-5.49-5.19-11.86-8.32-17.54c-10.08-18.24-27.02-34.74-48.32-38.37
	c-0.39-0.07-0.77-0.13-1.16-0.18l0.81-1.57c0,0,17.64,1.68,34.21,13.5c2.89,2.06,5.75,4.44,8.48,7.16c0,0,10.01,10.56,14.18,18.07
	c4.16,7.48,9.06,14.54,17.26,17.83c0.02,0.01,0.05,0.02,0.08,0.03c1.25,0.51,2.61,0.78,4.02,0.78c1.68,0,3.3-0.39,4.82-1.17
	c0.19-0.1,0.38-0.2,0.56-0.31L227.3,198.68z"/>
<linearGradient id="SVGID_5_" gradientUnits="userSpaceOnUse" x1="154.3623" y1="35.9447" x2="235.432" y2="189.9262">
	<stop  offset="0" style="stop-color:#20C0F1"/>
	<stop  offset="0.6769" style="stop-color:#6D45D1"/>
	<stop  offset="1" style="stop-color:#6A2FD6"/>
</linearGradient>
<path class="st5" d="M238.64,178.3c0,8.09-4.11,15.91-11.34,20.38l-7.21-11.23c2.24-1.32,3.89-3.39,4.7-5.88
	c0.87-2.7,0.63-5.57-0.66-8.09L165.65,59.55l-0.47-0.92L162,52.44l-0.51-0.99c-1.16-2.26-2.79-4.01-4.84-5.21
	c-1.94-1.13-4.19-1.73-6.51-1.73c-0.28,0-0.61,0.01-0.97,0.04V31.2c0.33-0.01,0.65-0.02,0.97-0.02c6.84,0,13.69,2.62,18.74,7.87
	c1.73,1.8,3.25,3.9,4.49,6.31l3.69,7.18l0.47,0.91l58.47,113.94C237.79,170.89,238.64,174.62,238.64,178.3z"/>
<linearGradient id="SVGID_6_" gradientUnits="userSpaceOnUse" x1="75.3062" y1="204.1642" x2="146.1785" y2="31.8273">
	<stop  offset="0" style="stop-color:#309BE2"/>
	<stop  offset="0.7104" style="stop-color:#1EC4F3"/>
	<stop  offset="1" style="stop-color:#20C0F1"/>
</linearGradient>
<path class="st6" d="M149.17,31.2v13.36c-2.71,0.2-7.55,1.38-10.38,6.9l-0.51,0.99l-3.18,6.19l-0.46,0.9L75.96,173.88
	c-2.67,5.2-0.61,11.6,4.59,14.27c1.52,0.78,3.14,1.18,4.82,1.18c3.54,0,6.77-1.72,8.73-4.57l1.79-3.48h15.1l-4.3,8.38
	c-4.24,8.27-12.63,13.02-21.32,13.02c-0.15,0-0.3,0-0.45-0.01c-1.69-0.03-3.39-0.24-5.07-0.64c-1.83-0.44-3.64-1.1-5.39-2
	c-11.76-6.04-16.4-20.47-10.37-32.23l58.67-114.34l0.47-0.91l3.69-7.18c1.24-2.41,2.76-4.52,4.49-6.31
	C136.21,34.05,142.65,31.43,149.17,31.2z"/>
<line class="st7" x1="129.32" y1="145.56" x2="114.22" y2="145.56"/>
<line class="st7" x1="123.68" y1="156.54" x2="108.59" y2="156.54"/>
<line class="st7" x1="116.62" y1="170.29" x2="101.52" y2="170.29"/>
<linearGradient id="SVGID_7_" gradientUnits="userSpaceOnUse" x1="158.5321" y1="151.4398" x2="145.5304" y2="199.6228">
	<stop  offset="0" style="stop-color:#509DF3"/>
	<stop  offset="1" style="stop-color:#5E76CF"/>
</linearGradient>
<path class="st8" d="M150,145.56c0,0,28.91,16.96-15.84,56.15c0,0,9.73,0,9.73,0c0.35,0,1.21-0.98,1.46-1.19
	c1.29-1.09,2.53-2.24,3.73-3.43c3.69-3.64,7.05-7.67,9.71-12.12c4.76-7.95,6.97-18.1,3.77-27.05
	C160.45,152.01,155.83,147.73,150,145.56z"/>
<path class="st9" d="M55.69,240.16h-9.87l-2.02,5.18h-4.65l9.69-23.36h3.73l9.69,23.36h-4.56L55.69,240.16z M54.18,236.26
	l-3.41-8.76l-3.41,8.76H54.18z"/>
<path class="st9" d="M65.92,221.99h9.57c2.33,0,4.14,0.62,5.44,1.87c1.29,1.25,1.94,2.94,1.94,5.08c0,2.12-0.65,3.81-1.96,5.07
	c-1.3,1.26-3.11,1.89-5.42,1.89h-4.95v9.45h-4.62V221.99z M74.9,232c2.41,0,3.62-1.01,3.62-3.02c0-2.03-1.21-3.05-3.62-3.05h-4.36
	V232H74.9z"/>
<path class="st9" d="M87.07,221.99h14.55v3.97H91.58v5.51H101v4h-9.42v5.9h10.05v3.97H87.07V221.99z"/>
<path class="st9" d="M126.03,245.35h-5.39l-5.28-8.07l-5.28,8.07h-5.39l8.03-11.84l-7.79-11.51h5.39l5.04,7.77l5.1-7.77h5.39
	l-7.88,11.51L126.03,245.35z"/>
<path class="st9" d="M156.71,245.68c-1.86-0.63-3.38-1.53-4.56-2.69c-1.86,1.75-3.96,2.62-6.31,2.62c-1.48,0-2.79-0.27-3.93-0.82
	c-1.14-0.55-2.02-1.32-2.65-2.31c-0.63-1-0.95-2.13-0.95-3.4c0-1.4,0.34-2.64,1.01-3.71c0.67-1.07,1.73-2.07,3.17-2.98
	c-1.36-1.6-2.04-3.24-2.04-4.92c0-1.12,0.26-2.1,0.77-2.97c0.51-0.86,1.23-1.54,2.15-2.02c0.92-0.48,1.98-0.72,3.19-0.72
	c1.68,0,3.02,0.48,4.03,1.43c1.01,0.95,1.51,2.23,1.51,3.82c0,1.22-0.31,2.32-0.92,3.28c-0.61,0.96-1.57,1.86-2.87,2.69l3.65,3.97
	c0.75-1.77,1.19-3.73,1.3-5.87h3.7c-0.16,3.37-0.94,6.29-2.34,8.76c1.22,1.16,2.64,1.97,4.24,2.43L156.71,245.68z M143.55,241.02
	c0.59,0.55,1.39,0.82,2.4,0.82c1.34,0,2.58-0.52,3.7-1.57l-4.86-5.31c-0.73,0.52-1.27,1.1-1.62,1.72c-0.35,0.62-0.52,1.33-0.52,2.12
	C142.66,239.73,142.96,240.47,143.55,241.02z M145.03,225.71c-0.4,0.43-0.59,1-0.59,1.72c0,0.44,0.11,0.87,0.34,1.31
	c0.23,0.44,0.64,1.01,1.23,1.71c0.91-0.55,1.56-1.07,1.94-1.57c0.39-0.5,0.58-1.06,0.58-1.67c0-0.66-0.18-1.18-0.53-1.56
	c-0.36-0.38-0.82-0.57-1.39-0.57C145.95,225.08,145.43,225.29,145.03,225.71z"/>
<path class="st9" d="M176.34,244.15c-1.59-0.99-2.81-2.39-3.66-4.2c-0.85-1.8-1.27-3.91-1.27-6.31c0-2.38,0.42-4.48,1.27-6.28
	c0.85-1.8,2.07-3.2,3.66-4.18c1.59-0.98,3.45-1.48,5.59-1.48c1.4,0,2.74,0.24,4.02,0.71c1.27,0.47,2.32,1.13,3.13,1.98l-1.45,3.67
	c-0.95-0.79-1.87-1.36-2.77-1.72c-0.9-0.36-1.84-0.54-2.83-0.54c-1.9,0-3.35,0.67-4.36,2c-1.01,1.33-1.51,3.28-1.51,5.84
	c0,2.58,0.5,4.54,1.51,5.89s2.46,2.02,4.36,2.02c0.99,0,1.93-0.18,2.83-0.54c0.9-0.36,1.82-0.93,2.77-1.72l1.45,3.67
	c-0.81,0.85-1.85,1.51-3.13,1.98c-1.27,0.47-2.61,0.71-4.02,0.71C179.8,245.64,177.93,245.15,176.34,244.15z"/>
<path class="st9" d="M212.37,221.99v23.36h-4.53v-9.81h-9.78v9.81h-4.53v-23.36h4.53v9.45h9.78v-9.45H212.37z"/>
<path class="st9" d="M218.2,221.99h4.62v23.36h-4.62V221.99z"/>
<path class="st9" d="M228.66,221.99h4.62v19.19h9.43v4.17h-14.05V221.99z"/>
<path class="st9" d="M246.8,221.99h4.62v19.19h9.43v4.17H246.8V221.99z"/>
<path class="st9" d="M58.63,268.65v-11.48h4.18c0.86,0,1.58,0.15,2.16,0.46c0.58,0.31,1.02,0.74,1.32,1.29
	c0.3,0.55,0.45,1.19,0.45,1.92c0,0.74-0.15,1.37-0.45,1.91c-0.3,0.54-0.75,0.96-1.34,1.25c-0.59,0.29-1.31,0.44-2.17,0.44h-2.98
	v-1.73h2.71c0.5,0,0.91-0.07,1.23-0.22c0.32-0.14,0.56-0.35,0.71-0.63c0.15-0.28,0.23-0.62,0.23-1.03c0-0.41-0.08-0.76-0.23-1.04
	c-0.16-0.29-0.39-0.51-0.71-0.66c-0.32-0.15-0.73-0.23-1.24-0.23h-1.85v9.74H58.63z M64.4,263.45l2.76,5.2H64.9l-2.71-5.2H64.4z"/>
<path class="st9" d="M75.54,268.65h-2.16l3.93-11.48h2.5l3.93,11.48h-2.16l-2.98-9.12h-0.09L75.54,268.65z M75.61,264.15h5.88v1.67
	h-5.88V264.15z"/>
<path class="st9" d="M99.26,261.05h-2.04c-0.06-0.34-0.17-0.65-0.32-0.92c-0.16-0.27-0.35-0.49-0.58-0.68
	c-0.23-0.19-0.5-0.33-0.79-0.42c-0.3-0.1-0.61-0.14-0.96-0.14c-0.61,0-1.14,0.16-1.61,0.47c-0.47,0.31-0.84,0.77-1.1,1.37
	c-0.27,0.6-0.4,1.33-0.4,2.19c0,0.88,0.13,1.62,0.4,2.22c0.27,0.6,0.63,1.05,1.1,1.36c0.47,0.3,1,0.46,1.6,0.46
	c0.33,0,0.65-0.05,0.94-0.14c0.29-0.09,0.56-0.23,0.79-0.41c0.23-0.18,0.43-0.4,0.59-0.66c0.16-0.26,0.27-0.56,0.34-0.9l2.04,0.01
	c-0.08,0.55-0.24,1.06-0.49,1.54c-0.25,0.48-0.58,0.9-0.99,1.26s-0.88,0.65-1.43,0.85c-0.54,0.2-1.15,0.31-1.81,0.31
	c-0.98,0-1.86-0.23-2.63-0.7c-0.77-0.47-1.38-1.14-1.82-2.02s-0.66-1.94-0.66-3.17c0-1.24,0.22-2.29,0.67-3.17
	c0.45-0.88,1.06-1.55,1.83-2.02c0.77-0.47,1.64-0.7,2.61-0.7c0.62,0,1.2,0.09,1.73,0.27c0.53,0.18,1.01,0.44,1.43,0.79
	c0.42,0.35,0.76,0.77,1.03,1.27C99,259.84,99.18,260.41,99.26,261.05z"/>
<path class="st9" d="M108.14,257.17v11.48h-2.02v-11.48H108.14z"/>
<path class="st9" d="M124.56,257.17v11.48h-1.8l-5.26-7.82h-0.09v7.82h-2.02v-11.48h1.81l5.25,7.82h0.1v-7.82H124.56z"/>
<path class="st9" d="M139.25,260.84c-0.09-0.3-0.22-0.57-0.37-0.82c-0.16-0.24-0.35-0.45-0.57-0.62c-0.22-0.17-0.47-0.3-0.75-0.39
	c-0.28-0.09-0.59-0.13-0.93-0.13c-0.6,0-1.13,0.16-1.6,0.47c-0.47,0.31-0.84,0.76-1.1,1.36c-0.27,0.6-0.4,1.33-0.4,2.19
	c0,0.87,0.13,1.6,0.4,2.2c0.27,0.6,0.63,1.06,1.11,1.37c0.47,0.31,1.02,0.47,1.65,0.47c0.57,0,1.06-0.11,1.47-0.34
	c0.42-0.22,0.74-0.54,0.96-0.96c0.23-0.41,0.34-0.9,0.34-1.45l0.46,0.07h-3.03v-1.62h4.53v1.38c0,0.98-0.2,1.83-0.61,2.55
	c-0.41,0.72-0.97,1.27-1.68,1.66c-0.71,0.39-1.53,0.58-2.45,0.58c-1.03,0-1.93-0.24-2.7-0.71c-0.78-0.48-1.38-1.15-1.81-2.03
	c-0.43-0.88-0.65-1.92-0.65-3.14c0-0.93,0.13-1.75,0.38-2.48c0.26-0.73,0.61-1.35,1.08-1.86c0.46-0.51,1-0.9,1.62-1.17
	c0.62-0.27,1.3-0.4,2.03-0.4c0.62,0,1.19,0.09,1.73,0.28c0.53,0.18,1.01,0.45,1.42,0.79c0.42,0.34,0.76,0.74,1.03,1.21
	c0.27,0.47,0.44,0.98,0.53,1.55H139.25z"/>
<path class="st9" d="M157.6,268.65v-11.48h2.02v9.73h4.91v1.74H157.6z"/>
<path class="st9" d="M171.11,268.65v-11.48h7.26v1.74h-5.24v3.12h4.86v1.74h-4.86v3.13h5.28v1.74H171.11z"/>
<path class="st9" d="M187.07,268.65h-2.16l3.93-11.48h2.5l3.93,11.48h-2.16l-2.98-9.12h-0.09L187.07,268.65z M187.14,264.15h5.88
	v1.67h-5.88V264.15z"/>
<path class="st9" d="M208.71,260.84c-0.09-0.3-0.22-0.57-0.37-0.82c-0.16-0.24-0.35-0.45-0.57-0.62c-0.22-0.17-0.47-0.3-0.75-0.39
	c-0.28-0.09-0.59-0.13-0.93-0.13c-0.6,0-1.13,0.16-1.6,0.47c-0.47,0.31-0.84,0.76-1.1,1.36c-0.27,0.6-0.4,1.33-0.4,2.19
	c0,0.87,0.13,1.6,0.4,2.2c0.27,0.6,0.63,1.06,1.11,1.37c0.47,0.31,1.02,0.47,1.65,0.47c0.57,0,1.06-0.11,1.47-0.34
	c0.42-0.22,0.74-0.54,0.96-0.96c0.23-0.41,0.34-0.9,0.34-1.45l0.46,0.07h-3.03v-1.62h4.53v1.38c0,0.98-0.2,1.83-0.61,2.55
	c-0.41,0.72-0.97,1.27-1.68,1.66c-0.71,0.39-1.53,0.58-2.45,0.58c-1.03,0-1.93-0.24-2.7-0.71c-0.78-0.48-1.38-1.15-1.81-2.03
	c-0.43-0.88-0.65-1.92-0.65-3.14c0-0.93,0.13-1.75,0.38-2.48c0.26-0.73,0.61-1.35,1.08-1.86c0.46-0.51,1-0.9,1.62-1.17
	c0.62-0.27,1.3-0.4,2.03-0.4c0.62,0,1.19,0.09,1.73,0.28s1.01,0.45,1.42,0.79c0.42,0.34,0.76,0.74,1.03,1.21
	c0.27,0.47,0.44,0.98,0.53,1.55H208.71z"/>
<path class="st9" d="M224.82,257.17h2.02v7.5c0,0.82-0.19,1.54-0.56,2.17c-0.38,0.62-0.9,1.11-1.58,1.46s-1.47,0.52-2.38,0.52
	c-0.91,0-1.71-0.17-2.39-0.52c-0.68-0.35-1.21-0.84-1.58-1.46c-0.37-0.62-0.56-1.35-0.56-2.17v-7.5h2.02v7.32
	c0,0.48,0.1,0.9,0.31,1.28c0.21,0.37,0.49,0.67,0.87,0.88c0.37,0.21,0.82,0.32,1.33,0.32c0.51,0,0.96-0.11,1.33-0.32
	c0.38-0.21,0.67-0.5,0.87-0.88c0.2-0.37,0.3-0.8,0.3-1.28V257.17z"/>
<path class="st9" d="M234.07,268.65v-11.48h7.26v1.74h-5.24v3.12h4.86v1.74h-4.86v3.13h5.28v1.74H234.07z"/>
</svg>
