<?xml version="1.0" encoding="utf-8"?>
<!-- Apex & Chill "A" mark only — transparent background, cropped from the full
     logo lockup (assets/logo.svg) for use in the app header at small sizes. -->
<svg version="1.1" xmlns="http://www.w3.org/2000/svg" viewBox="70 25 174 184">
<style type="text/css">
	.st1{fill:url(#SVGID_1_);}
	.st2{fill:url(#SVGID_2_);}
	.st3{fill:url(#SVGID_3_);}
	.st4{fill:url(#SVGID_4_);}
	.st5{fill:url(#SVGID_5_);}
	.st6{fill:url(#SVGID_6_);}
	.st8{fill:url(#SVGID_7_);}
</style>
<linearGradient id="SVGID_1_" gradientUnits="userSpaceOnUse" x1="108.2323" y1="171.3011" x2="149.1496" y2="97.4971">
	<stop  offset="0" style="stop-color:#309BE1"/>
	<stop  offset="0.7104" style="stop-color:#26BBF4"/>
	<stop  offset="1" style="stop-color:#26ACF3"/>
</linearGradient>
<path class="st1" d="M108.59,156.54l-7.06,13.76h15.1l7.06-13.76H108.59z"/>
<linearGradient id="SVGID_2_" gradientUnits="userSpaceOnUse" x1="106.8194" y1="170.5179" x2="147.7367" y2="96.7138">
	<stop  offset="0" style="stop-color:#309BE1"/>
	<stop  offset="0.7104" style="stop-color:#26BBF4"/>
	<stop  offset="1" style="stop-color:#26ACF3"/>
</linearGradient>
<path class="st2" d="M150,86.73v18.53l-0.33,0.64l-13.17,25.67l-0.81,1.57l-6.38,12.42h-15.1l27.58-53.74
	C143.52,88.47,146.75,86.77,150,86.73z"/>
<linearGradient id="SVGID_3_" gradientUnits="userSpaceOnUse" x1="157.4404" y1="100.3954" x2="170.6334" y2="133.0909">
	<stop  offset="0" style="stop-color:#26ACF3"/>
	<stop  offset="1" style="stop-color:#5585D3"/>
</linearGradient>
<path class="st3" d="M181.41,136.5c-7.29-3.72-14.16-6.03-18.87-7.36l-11.93-23.25l-0.47-0.91l-0.14,0.27V86.73
	c3.34-0.05,6.71,1.65,8.48,5.09L181.41,136.5z"/>
<linearGradient id="SVGID_4_" gradientUnits="userSpaceOnUse" x1="214.2888" y1="193.8153" x2="152.8492" y2="145.1224">
	<stop  offset="0" style="stop-color:#6A2FD6"/>
	<stop  offset="0.1477" style="stop-color:#9165E1"/>
	<stop  offset="0.2956" style="stop-color:#B294EA"/>
	<stop  offset="0.4435" style="stop-color:#CEBAF1"/>
	<stop  offset="0.5891" style="stop-color:#E3D8F7"/>
	<stop  offset="0.7319" style="stop-color:#F3EEFC"/>
	<stop  offset="0.8704" style="stop-color:#FCFBFE"/>
	<stop  offset="1" style="stop-color:#FFFFFF"/>
</linearGradient>
<path class="st4" d="M227.3,198.68c-0.54,0.33-1.1,0.65-1.68,0.95c-3.35,1.72-6.93,2.57-10.46,2.64c-0.15,0.01-0.3,0.01-0.45,0.01
	c-9.2,0-16.51-5.48-21.22-13.06c-3.4-5.49-5.19-11.86-8.32-17.54c-10.08-18.24-27.02-34.74-48.32-38.37
	c-0.39-0.07-0.77-0.13-1.16-0.18l0.81-1.57c0,0,17.64,1.68,34.21,13.5c2.89,2.06,5.75,4.44,8.48,7.16c0,0,10.01,10.56,14.18,18.07
	c4.16,7.48,9.06,14.54,17.26,17.83c0.02,0.01,0.05,0.02,0.08,0.03c1.25,0.51,2.61,0.78,4.02,0.78c1.68,0,3.3-0.39,4.82-1.17
	c0.19-0.1,0.38-0.2,0.56-0.31L227.3,198.68z"/>
<linearGradient id="SVGID_5_" gradientUnits="userSpaceOnUse" x1="154.3623" y1="35.9447" x2="235.432" y2="189.9262">
	<stop  offset="0" style="stop-color:#20C0F1"/>
	<stop  offset="0.6769" style="stop-color:#6D45D1"/>
	<stop  offset="1" style="stop-color:#6A2FD6"/>
</linearGradient>
<path class="st5" d="M238.64,178.3c0,8.09-4.11,15.91-11.34,20.38l-7.21-11.23c2.24-1.32,3.89-3.39,4.7-5.88
	c0.87-2.7,0.63-5.57-0.66-8.09L165.65,59.55l-0.47-0.92L162,52.44l-0.51-0.99c-1.16-2.26-2.79-4.01-4.84-5.21
	c-1.94-1.13-4.19-1.73-6.51-1.73c-0.28,0-0.61,0.01-0.97,0.04V31.2c0.33-0.01,0.65-0.02,0.97-0.02c6.84,0,13.69,2.62,18.74,7.87
	c1.73,1.8,3.25,3.9,4.49,6.31l3.69,7.18l0.47,0.91l58.47,113.94C237.79,170.89,238.64,174.62,238.64,178.3z"/>
<linearGradient id="SVGID_6_" gradientUnits="userSpaceOnUse" x1="75.3062" y1="204.1642" x2="146.1785" y2="31.8273">
	<stop  offset="0" style="stop-color:#309BE2"/>
	<stop  offset="0.7104" style="stop-color:#1EC4F3"/>
	<stop  offset="1" style="stop-color:#20C0F1"/>
</linearGradient>
<path class="st6" d="M149.17,31.2v13.36c-2.71,0.2-7.55,1.38-10.38,6.9l-0.51,0.99l-3.18,6.19l-0.46,0.9L75.96,173.88
	c-2.67,5.2-0.61,11.6,4.59,14.27c1.52,0.78,3.14,1.18,4.82,1.18c3.54,0,6.77-1.72,8.73-4.57l1.79-3.48h15.1l-4.3,8.38
	c-4.24,8.27-12.63,13.02-21.32,13.02c-0.15,0-0.3,0-0.45-0.01c-1.69-0.03-3.39-0.24-5.07-0.64c-1.83-0.44-3.64-1.1-5.39-2
	c-11.76-6.04-16.4-20.47-10.37-32.23l58.67-114.34l0.47-0.91l3.69-7.18c1.24-2.41,2.76-4.52,4.49-6.31
	C136.21,34.05,142.65,31.43,149.17,31.2z"/>
<linearGradient id="SVGID_7_" gradientUnits="userSpaceOnUse" x1="158.5321" y1="151.4398" x2="145.5304" y2="199.6228">
	<stop  offset="0" style="stop-color:#509DF3"/>
	<stop  offset="1" style="stop-color:#5E76CF"/>
</linearGradient>
<path class="st8" d="M150,145.56c0,0,28.91,16.96-15.84,56.15c0,0,9.73,0,9.73,0c0.35,0,1.21-0.98,1.46-1.19
	c1.29-1.09,2.53-2.24,3.73-3.43c3.69-3.64,7.05-7.67,9.71-12.12c4.76-7.95,6.97-18.1,3.77-27.05
	C160.45,152.01,155.83,147.73,150,145.56z"/>
</svg>
